<?xml version="1.0" standalone="no"?><!DOCTYPE svg PUBLIC "-//W3C//DTD SVG 1.1//EN" "http://www.w3.org/Graphics/SVG/1.1/DTD/svg11.dtd"><svg t="1553742766643" class="icon" style="" viewBox="0 0 1024 1024" version="1.1" xmlns="http://www.w3.org/2000/svg" p-id="8652" xmlns:xlink="http://www.w3.org/1999/xlink" width="120" height="120"><defs><style type="text/css"></style></defs><path d="M512 51.2c-253.952 0-460.8 206.848-460.8 460.8s206.848 460.8 460.8 460.8S972.8 765.952 972.8 512s-206.848-460.8-460.8-460.8z m174.08 604.16c8.192 8.192 8.192 20.48 0 28.672s-20.48 8.192-28.672 0l-145.408-145.408-145.408 145.408c-8.192 8.192-20.48 8.192-28.672 0s-8.192-20.48 0-28.672l145.408-145.408-145.408-145.408c-8.192-8.192-8.192-20.48 0-28.672s20.48-8.192 28.672 0l145.408 145.408 145.408-145.408c8.192-8.192 20.48-8.192 28.672 0s8.192 20.48 0 28.672l-145.408 145.408 145.408 145.408z" p-id="8653" fill="#ff8992"></path></svg>